<svg width="94" height="116" viewBox="0 0 94 116" fill="none" xmlns="http://www.w3.org/2000/svg">
<path d="M90.9979 39.3482C90.3282 39.8676 78.5046 46.5276 78.5046 61.3365C78.5046 78.4655 93.5497 84.5253 94 84.6754C93.9307 85.0447 91.6099 92.9744 86.0676 101.054C81.1257 108.164 75.9644 115.263 68.1128 115.263C60.2612 115.263 58.2405 110.704 49.1765 110.704C40.3434 110.704 37.2028 115.413 30.0209 115.413C22.839 115.413 17.8278 108.834 12.0661 100.754C5.39221 91.2661 0 76.5264 0 62.537C0 40.0984 14.5948 28.1982 28.9586 28.1982C36.5908 28.1982 42.953 33.2076 47.7448 33.2076C52.3056 33.2076 59.4183 27.8981 68.1012 27.8981C71.392 27.8981 83.2156 28.1982 90.9979 39.3482ZM63.9791 18.3987C67.5701 14.1395 70.1103 8.22976 70.1103 2.32003C70.1103 1.50052 70.041 0.669462 69.8909 0C64.0484 0.219306 57.0974 3.8898 52.906 8.74917C49.6153 12.4889 46.5439 18.3987 46.5439 24.3892C46.5439 25.2895 46.694 26.1898 46.7633 26.4784C47.1328 26.5476 47.7332 26.6284 48.3336 26.6284C53.5757 26.6284 60.1688 23.1195 63.9791 18.3987Z" fill="white"/>
</svg>
