<svg width="202" height="77" viewBox="0 0 202 77" fill="none" xmlns="http://www.w3.org/2000/svg">
<g clip-path="url(#clip0_510_1228)">
<path d="M28.5657 38.1936C28.5657 43.2997 24.4849 47.3846 19.3839 47.3846C14.2829 47.3846 10.2021 43.2997 10.2021 38.1936C10.2021 33.0875 14.2829 29.0026 19.3839 29.0026H28.5657V38.1936ZM38.7677 0.408447H28.5657V18.9947C25.097 18.9947 21.6283 18.9947 19.3839 18.9947C8.7738 18.9947 0.204102 27.5729 0.204102 38.1936C0.204102 48.8143 8.7738 57.3925 19.3839 57.3925C29.994 57.3925 38.5637 48.8143 38.5637 38.1936C38.5637 32.8832 38.5637 18.9947 38.5637 18.9947L38.7677 0.408447Z" fill="white"/>
<path d="M140.176 47.3847C145.277 47.3847 149.358 43.2998 149.358 38.1937C149.358 33.0876 145.277 29.0027 140.176 29.0027C135.075 29.0027 130.994 33.0876 130.994 38.1937C131.198 43.2998 135.279 47.3847 140.176 47.3847ZM121.2 38.1937C121.2 27.573 129.77 18.9948 140.38 18.9948C150.99 18.9948 159.56 27.573 159.56 38.1937C159.56 48.8144 150.99 57.3926 140.38 57.3926C129.77 57.3926 121.2 48.8144 121.2 38.1937Z" fill="white"/>
<path d="M191.594 38.1937C191.594 33.2918 187.513 29.207 182.616 29.207C177.719 29.207 173.638 33.2918 173.638 38.1937C173.638 40.6446 173.638 56.5757 173.638 56.5757C168.537 56.5757 163.64 56.5757 163.64 56.5757C163.64 56.5757 163.64 43.504 163.64 38.1937C163.64 27.573 172.21 18.9948 182.82 18.9948C193.43 18.9948 202 27.573 202 38.1937C202 43.504 202 56.5757 202 56.5757C202 56.5757 197.103 56.5757 192.002 56.5757C191.594 56.5757 191.594 40.6446 191.594 38.1937Z" fill="white"/>
<path d="M97.7354 31.6578C96.3071 30.6366 96.7152 29.0027 99.1637 28.3899C102.224 27.5729 107.529 28.1857 112.018 30.2281L116.711 23.6923C114.671 22.0584 110.182 19.8117 103.653 19.4032C103.653 19.4032 92.6344 17.9735 88.1455 26.3475C88.1455 26.3475 84.2687 34.1088 92.0223 39.0106C96.7152 41.87 104.877 43.0955 107.529 44.321C109.57 45.5464 108.958 47.7931 105.897 48.4058C100.592 49.6313 93.6546 46.5676 91.4101 44.9337L86.5132 51.6737C89.7778 54.1247 93.8586 56.3713 100.388 57.3926C100.388 57.3926 110.794 59.2308 116.507 52.0822C117.527 50.8568 122.22 42.0743 112.834 36.9682C107.937 34.313 100.184 33.0875 97.7354 31.6578Z" fill="white"/>
<path d="M50.8061 63.9284C51.2142 64.1326 55.9071 67.4005 60.396 67.4005C71.4142 67.6047 72.0263 56.1671 72.0263 53.5119C69.9859 55.7586 65.701 57.1883 63.0485 57.1883C52.4384 57.1883 44.0728 49.0185 44.0728 38.3979C44.0728 33.0875 44.0728 19.8116 44.0728 19.8116C44.0728 19.8116 48.9697 19.8116 54.0707 19.8116C54.0707 19.8116 54.0707 36.1512 54.0707 38.3979C54.0707 43.2997 58.1515 47.3846 63.0485 47.3846C67.9455 47.3846 72.0263 43.2997 72.0263 38.3979C72.0263 36.3554 72.0263 19.8116 72.0263 19.8116C77.1273 19.8116 82.0243 19.8116 82.0243 19.8116V38.3979C82.0243 54.9416 82.8404 71.8939 66.7212 75.7745C54.6829 78.6339 46.1132 71.0769 45.501 70.6684L50.8061 63.9284Z" fill="white"/>
</g>
<defs>
<clipPath id="clip0_510_1228">
<rect width="202" height="77" fill="white"/>
</clipPath>
</defs>
</svg>
