<svg width="43" height="48" viewBox="0 0 43 48" fill="none" xmlns="http://www.w3.org/2000/svg">
<circle cx="21.4285" cy="14" r="9.5" stroke="#3BA9A9"/>
<path d="M42.308 43.0513C42.3301 43.275 42.1467 43.5001 41.8571 43.5001H21.4286H0.951227C0.674779 43.5001 0.497464 43.2956 0.503368 43.0903C0.54403 41.6767 0.952986 40.2666 1.72743 38.9159C2.66153 37.2868 4.1102 35.7749 6.00503 34.4783C7.8995 33.1819 10.1936 32.1327 12.7556 31.3987C15.3171 30.6649 18.0881 30.2629 20.9045 30.2185C23.7209 30.1741 26.5207 30.4882 29.1379 31.1407C31.7556 31.7934 34.1316 32.7699 36.1283 34.007C38.1255 35.2444 39.6946 36.7122 40.7581 38.3147C41.6179 39.6103 42.1501 41.4536 42.308 43.0513Z" stroke="#3BA9A9"/>
</svg>
