<svg width="290" height="46" viewBox="0 0 290 46" fill="none" xmlns="http://www.w3.org/2000/svg">
<g clip-path="url(#clip0_510_1212)">
<path d="M289.496 8.70225L266.165 36.3414H289.496V43.3708H257.024V35.9589L280.404 8.65443H258.612V1.76854H289.496V8.70225ZM241.871 1.76854V8.70225H228.882V43.3708H221.859V8.70225H208.87V1.76854H241.871ZM185.972 29.2643C190.927 26.8255 194.005 21.8046 194.053 16.3532C194.053 8.70225 187.752 1.912 179.91 1.76854H164.468V43.3708H171.492V30.8423H177.89L192.418 45.5226L197.325 40.6929L185.972 29.2643ZM179.333 23.9564H171.443V8.70225H179.333C183.614 8.70225 187.126 12.0974 187.126 16.3054C187.126 20.5135 183.662 23.9564 179.333 23.9564ZM133.199 1.76854H124.732L108.665 43.3708H116.025L119.056 35.2416H138.876L141.906 43.3708H149.267L133.199 1.76854ZM121.75 28.7861L128.966 9.99334L136.182 28.7861H121.75ZM95.0508 1.76854V28.1166C95.0508 37.0587 87.7868 44.3272 78.839 44.3272C69.8913 44.3272 62.6273 37.0587 62.6273 28.1166V1.76854H69.6508V28.1166C69.5064 33.2811 73.6917 37.4413 78.839 37.4413C83.9864 37.4413 88.1717 33.2811 88.0754 28.1166V1.76854H95.0508ZM40.3541 35.3851C43.0961 31.6552 44.5874 27.1124 44.5874 22.474C44.5874 10.4715 34.7738 0.668701 22.7472 0.668701C10.6725 0.668701 0.906982 10.4715 0.906982 22.474C0.906982 34.5243 10.7207 44.2793 22.7472 44.2793C27.4616 44.2793 31.8874 42.7491 35.4472 40.2148L40.9314 45.6661L45.7901 40.8364L40.3541 35.3851ZM35.3991 30.4597L27.3173 22.3784L22.4586 27.2559L30.4923 35.2894C28.1351 36.724 25.4893 37.4413 22.7472 37.4413C14.4729 37.4413 7.78617 30.7467 7.78617 22.474C7.78617 14.2492 14.521 7.50678 22.7472 7.50678C31.0215 7.50678 37.7082 14.2014 37.7082 22.474C37.7082 25.2953 36.8904 28.0688 35.3991 30.4597Z" fill="white"/>
</g>
<defs>
<clipPath id="clip0_510_1212">
<rect width="290" height="46" fill="white"/>
</clipPath>
</defs>
</svg>
