<svg width="309" height="56" viewBox="0 0 309 56" fill="none" xmlns="http://www.w3.org/2000/svg">
<g clip-path="url(#clip0_510_1220)">
<path d="M110.085 55.1138C98.8916 55.1138 88.5011 51.7431 81.5654 45.4922C76.3254 40.7695 73.8076 34.3547 73.8076 27.7523C73.8076 21.2303 76.434 14.7712 81.5648 10.0734C88.0059 4.17883 99.378 0.487305 110.085 0.487305C121.934 0.487305 131.417 3.48414 138.667 10.0896C143.825 14.7899 146.318 21.2203 146.318 27.7529C146.318 34.0849 143.672 40.8281 138.667 45.4922C131.916 51.7836 121.307 55.1138 110.085 55.1138V47.9089C116.026 47.9089 121.537 45.8492 125.386 42.0037C129.208 38.1845 130.989 33.4899 130.989 27.7523C130.989 22.2558 129.068 17.1169 125.386 13.4721C121.589 9.71643 115.946 7.60307 110.085 7.60307C104.206 7.60307 98.5596 9.69463 94.7592 13.4721C91.0971 17.1157 89.1712 22.2695 89.1712 27.7523C89.1712 33.2182 91.1195 38.3689 94.7592 42.0044C98.5627 45.8037 104.189 47.9089 110.085 47.9089V55.1138ZM28.2726 0.513473C22.285 0.513473 15.4827 1.63806 9.70298 4.22992C4.36874 6.61991 0.00244267 10.4853 0.00244267 16.8933C-3.92376e-05 22.6645 3.65271 26.0445 3.55343 25.9511C5.10711 27.3872 7.60825 29.8326 14.1475 31.2687C17.0699 31.9105 23.3181 32.8961 29.5402 33.5491C35.7165 34.2033 41.7947 34.825 44.2704 35.4543C46.2373 35.9571 49.5413 36.6418 49.5413 40.3639C49.5413 44.071 46.0604 45.2024 45.4555 45.4479C44.8511 45.6878 40.6753 47.6118 33.1688 47.6118C27.6267 47.6118 20.964 45.9383 18.5355 45.066C15.7359 44.0654 12.7992 42.742 10.0598 39.382C9.37847 38.549 8.3038 36.258 8.3038 33.9895H1.5102V53.1045H9.06141V50.522C9.06141 50.2279 9.42749 49.0186 10.6951 49.5936C12.2724 50.3133 16.9024 52.1643 21.7433 53.1793C25.7125 54.0129 28.272 54.6104 33.2066 54.6104C41.258 54.6104 45.5833 53.2933 48.5734 52.436C51.3903 51.626 54.8712 50.1718 57.6987 47.9077C59.2301 46.6834 62.5881 43.5452 62.5881 37.8487C62.5881 32.3809 59.6656 28.9871 58.6375 27.9548C57.2371 26.5479 55.5264 25.4576 53.7438 24.6171C52.1908 23.8832 49.7399 23.0016 47.7345 22.5087C43.8422 21.5493 35.0414 20.3655 30.8327 19.9231C26.4193 19.4602 18.7632 18.8234 15.7055 17.8733C14.7785 17.5848 12.8885 16.6808 12.8885 14.4777C12.8885 12.9108 13.7528 11.5824 15.461 10.5089C18.1725 8.80305 23.6494 7.74264 29.3584 7.74264C36.108 7.71771 41.8238 9.26722 45.4598 10.8996C46.6964 11.4541 48.1434 12.2503 49.2925 13.1924C50.5893 14.2541 52.4098 16.4602 53.0681 19.5375H59.1674V2.89848H52.357V4.8324C52.357 5.45669 51.7149 6.26789 50.5006 5.5975C47.4528 3.99192 38.8356 0.527802 28.2714 0.513473M177.518 3.5371L210.74 33.6425L210.399 13.3731C210.365 10.7152 209.878 9.60553 207.015 9.60553H200.768V3.54208H229.174V9.60553H223.081C220.161 9.60553 219.976 10.5432 219.941 13.3731L220.456 52.1033H210.728L172.463 17.811L172.471 42.1483C172.505 44.7937 172.628 46.0398 175.343 46.0398H182.165V52.1008H154.269V46.0404H160.79C163.226 46.0404 163.129 43.7084 163.129 42.0106V13.6036C163.129 11.77 162.873 9.60989 159.048 9.60989H153.757V3.5371H177.518ZM261.633 46.0286C261.9 46.0286 263.085 45.9943 263.314 45.9239C263.603 45.8363 263.87 45.6868 264.095 45.4856C264.321 45.2844 264.5 45.0365 264.621 44.7588C264.708 44.5532 264.751 43.6436 264.751 43.4461L264.756 33.8637C264.756 33.6332 264.739 33.5335 264.35 33.0201C263.922 32.4594 246.949 13.145 246.172 12.2946C245.207 11.2385 243.513 9.60615 240.939 9.60615H235.037V3.54021H268.348V9.59868H264.332C263.404 9.59868 262.786 10.4834 263.58 11.4666C263.58 11.4666 274.788 24.9286 274.894 25.0694C274.998 25.2127 275.087 25.247 275.23 25.1162C275.37 24.9822 286.719 11.5899 286.808 11.484C287.348 10.8348 286.982 9.60553 285.818 9.60553H281.699V3.54021H309V9.60553H302.901C300.688 9.60553 299.788 10.0167 298.123 11.9064C297.362 12.7712 280.207 32.4326 279.741 32.9653C279.496 33.2438 279.517 33.6319 279.517 33.8624V43.4436C279.517 43.638 279.561 44.5489 279.648 44.7532C279.768 45.0313 279.948 45.2796 280.174 45.4809C280.4 45.6821 280.667 45.8314 280.957 45.9183C281.186 45.9893 282.355 46.0242 282.622 46.0242H288.861V52.0889H255.721V46.0236L261.634 46.0286H261.633Z" fill="white"/>
</g>
<defs>
<clipPath id="clip0_510_1220">
<rect width="309" height="55.6018" fill="white"/>
</clipPath>
</defs>
</svg>
