<svg width="175" height="119" viewBox="0 0 175 119" fill="none" xmlns="http://www.w3.org/2000/svg">
<path d="M88.2296 22.1486C88.2296 22.1486 85.6424 15.37 79.8644 9.59233C74.0906 3.81423 67.3164 1.22482 67.3164 1.22482C67.3164 1.22482 69.9036 8.00382 75.6774 13.7815C81.4555 19.5596 88.2296 22.1486 88.2296 22.1486Z" fill="white"/>
<path d="M104.965 13.7815C110.739 8.00382 113.326 1.22482 113.326 1.22482C113.326 1.22482 106.552 3.81423 100.778 9.59233C95.0042 15.37 92.417 22.1486 92.417 22.1486C92.417 22.1486 99.1912 19.5596 104.965 13.7815Z" fill="white"/>
<path d="M92.417 26.5759C92.417 26.5759 95.0042 33.3544 100.778 39.1325C106.552 44.9106 113.326 47.4996 113.326 47.4996C113.326 47.4996 110.739 40.7211 104.965 34.9434C99.1912 29.1653 92.417 26.5759 92.417 26.5759Z" fill="white"/>
<path d="M75.6774 34.9434C69.9036 40.7211 67.3164 47.4996 67.3164 47.4996C67.3164 47.4996 74.0906 44.9106 79.8644 39.1325C85.6424 33.3544 88.2296 26.5759 88.2296 26.5759C88.2296 26.5759 81.4555 29.1653 75.6774 34.9434Z" fill="white"/>
<path d="M66.9545 25.7179C67.6401 25.7179 68.1964 25.2809 68.1964 24.7416C68.1964 24.2023 67.6401 23.7652 66.9545 23.7652C66.2689 23.7652 65.2686 24.2023 65.2686 24.7416C65.2686 25.2809 66.2689 25.7179 66.9545 25.7179Z" fill="white"/>
<path d="M76.1825 24.3772C75.4969 24.2464 74.8457 23.903 74.8457 23.903C74.8457 23.903 72.6078 23.2391 68.3088 18.2971C68.3088 18.2971 65.355 21.6821 71.8144 23.7171L73.0433 24.0596L75.734 24.7409L73.0778 25.4281C65.0316 27.3894 68.3475 31.1842 68.3475 31.1842C72.6466 26.2474 74.7552 25.5645 74.7552 25.5645C74.7552 25.5645 75.4581 25.2206 76.1825 25.1002L77.8943 24.7409L76.1825 24.3772Z" fill="white"/>
<path d="M113.042 23.7652C112.356 23.7652 111.8 24.2023 111.8 24.7416C111.8 25.2809 112.356 25.7179 113.042 25.7179C113.727 25.7179 114.728 25.2809 114.728 24.7416C114.728 24.2023 113.727 23.7652 113.042 23.7652Z" fill="white"/>
<path d="M103.813 25.1045C104.499 25.2348 105.154 25.5787 105.154 25.5787C105.154 25.5787 107.388 26.2426 111.687 31.1842C111.687 31.1842 114.641 27.7997 108.186 25.7642L106.957 25.4221L104.262 24.7409L106.918 24.0536C114.964 22.0923 111.653 18.2971 111.653 18.2971C107.349 23.2343 105.241 23.9173 105.241 23.9173C105.241 23.9173 104.538 24.2611 103.813 24.381V24.3815L102.102 24.7409L103.813 25.1045Z" fill="white"/>
<path d="M90.9725 47.7955C90.9725 47.1109 90.537 46.5556 89.998 46.5556C89.459 46.5556 89.0234 47.1109 89.0234 47.7955C89.0234 48.4807 89.459 49.4816 89.998 49.4816C90.537 49.4816 90.9725 48.4807 90.9725 47.7955Z" fill="white"/>
<path d="M89.6352 38.5626C89.5015 39.2486 89.1609 39.9035 89.1609 39.9035C89.1609 39.9035 88.4968 42.1396 83.5596 46.4409C83.5596 46.4409 86.9402 49.3983 88.9755 42.9364L89.3161 41.7069L89.9974 39.0139L90.683 41.6684C92.645 49.7193 96.4395 46.4055 96.4395 46.4055C91.5023 42.102 90.821 39.9902 90.821 39.9902C90.821 39.9902 90.4761 39.2883 90.3553 38.5626L89.9974 36.8503L89.6352 38.5626Z" fill="white"/>
<path d="M89.0234 1.68604C89.0234 2.37115 89.459 2.92639 89.998 2.92639C90.537 2.92639 90.9725 2.37115 90.9725 1.68604C90.9725 1.00137 90.537 2.36034e-05 89.998 2.36034e-05C89.459 2.36034e-05 89.0234 1.00137 89.0234 1.68604Z" fill="white"/>
<path d="M90.3596 10.9196C90.4933 10.2337 90.8339 9.57875 90.8339 9.57875C90.8339 9.57875 91.498 7.34225 96.4395 3.04136C96.4395 3.04136 93.0546 0.0834999 91.0193 6.54583L90.6787 7.7754L89.9974 10.4679L89.3118 7.81378C87.3498 -0.237065 83.5596 3.07673 83.5596 3.07673C88.4925 7.38021 89.1738 9.49205 89.1738 9.49205C89.1738 9.49205 89.5188 10.194 89.6395 10.9192V10.9196L89.9974 12.632L90.3596 10.9196Z" fill="white"/>
<path d="M51.4408 74.7023C41.3533 74.7741 33.1019 85.9108 33.1019 95.6247C33.1019 105.847 39.1505 118.316 51.4408 118.276C63.7311 118.236 70.1101 104.811 70.1101 95.6248C70.1101 85.4777 61.5283 74.6307 51.4408 74.7023ZM51.4408 75.0834C59.8837 75.0834 62.1615 84.3458 62.1615 95.6247C62.1615 110.507 59.4138 117.849 51.4408 117.835C43.4678 117.821 40.874 111.812 40.874 95.6247C40.874 85.4847 42.9978 75.0834 51.4408 75.0834ZM73.4411 95.8994C73.3959 84.8465 82.3015 75.0558 89.8401 74.5699C92.5631 74.3783 96.0635 75.6169 98.107 76.4994C99.5908 77.1402 102.62 76.2126 103.158 74.5111H103.451V89.5671H103.158C103.158 88.9253 100.351 74.9485 89.8401 74.9485C82.0765 74.9485 81.3266 88.5086 81.3266 95.8993C81.3266 103.29 81.5526 117.921 90.6124 117.921C95.0012 117.921 98.2498 116.014 99.092 112.155V100.422H95.4081V99.9226H109.687V100.422H106.165V117.575H105.879C105.879 117.575 105.306 115.1 102.401 115.109C98.6873 115.119 95.1852 118.324 90.9162 118.285C79.6265 118.182 73.4864 106.952 73.4411 95.8994ZM5.40746 76.1854H0.961426V75.689H16.5363V76.1854H12.629L23.7577 106.206C27.2375 95.5635 29.9335 87.6968 33.5614 76.1854H29.6965V75.689H37.9202V76.1854H34.1752L20.6495 118.07L5.40746 76.1854ZM111.868 107.815L111.797 76.1372H107.565V75.6627H123.157V76.1372H118.927L119.021 110.871C119.958 114.848 121.622 117.866 127.31 117.911C132.997 117.956 136.864 114.569 138.301 109.94V76.1371H133.459V75.6767H173.084L173.166 90.8835H172.786C172.051 81.065 168.237 77.3543 161.567 76.2718C159.271 75.8993 156.864 76.1755 153.819 76.1519V95.5598C156.47 95.7632 159.294 95.5968 161.196 93.9734C162.927 92.4972 163.416 89.0864 163.543 87.7008H163.878V104.599H163.515C163.411 104.599 163.272 100.359 161.196 98.3467C159.108 96.3216 156.448 95.8238 153.819 96.3062V117.038C157.532 117.038 160.492 117.351 163.062 116.651C170.875 114.523 173.625 107.976 173.604 101.409H174.038V117.529H142.958V117.038H146.472V76.1372H138.879V109.94C138.019 113.174 134.873 118.525 126.812 118.489C119.317 118.455 111.884 115.098 111.868 107.815Z" fill="white"/>
</svg>
